<?xml version="1.0" encoding="UTF-8"?>
<mxfile host="Electron" modified="2022-11-14T14:45:52.794Z" agent="5.0 (Macintosh; Intel Mac OS X 10_15_7) AppleWebKit/537.36 (KHTML, like Gecko) draw.io/20.3.0 Chrome/104.0.5112.114 Electron/20.1.3 Safari/537.36" etag="gOGtKSBakX3YTroyMkS3" version="20.3.0" type="device">
  <diagram name="Page-1" id="5f0bae14-7c28-e335-631c-24af17079c00">
    <mxGraphModel dx="1106" dy="147" grid="1" gridSize="10" guides="1" tooltips="1" connect="1" arrows="1" fold="1" page="1" pageScale="1" pageWidth="1100" pageHeight="850" background="none" math="0" shadow="0">
      <root>
        <mxCell id="0" />
        <mxCell id="1" parent="0" />
        <mxCell id="lr-17ToZZyErR_8Ylzbh-14" style="edgeStyle=orthogonalEdgeStyle;rounded=0;orthogonalLoop=1;jettySize=auto;html=1;exitX=0;exitY=0.5;exitDx=0;exitDy=0;entryX=0.5;entryY=0;entryDx=0;entryDy=0;startArrow=classic;startFill=1;" edge="1" parent="1" source="lr-17ToZZyErR_8Ylzbh-1" target="lr-17ToZZyErR_8Ylzbh-5">
          <mxGeometry relative="1" as="geometry">
            <Array as="points">
              <mxPoint x="170" y="1080" />
            </Array>
          </mxGeometry>
        </mxCell>
        <mxCell id="lr-17ToZZyErR_8Ylzbh-15" style="edgeStyle=orthogonalEdgeStyle;rounded=0;orthogonalLoop=1;jettySize=auto;html=1;startArrow=none;startFill=0;endArrow=classic;endFill=1;" edge="1" parent="1" source="lr-17ToZZyErR_8Ylzbh-1" target="lr-17ToZZyErR_8Ylzbh-2">
          <mxGeometry relative="1" as="geometry" />
        </mxCell>
        <mxCell id="lr-17ToZZyErR_8Ylzbh-1" value="Users" style="rounded=0;whiteSpace=wrap;html=1;fillColor=#ffe6cc;strokeColor=#d79b00;" vertex="1" parent="1">
          <mxGeometry x="410" y="1050" width="120" height="60" as="geometry" />
        </mxCell>
        <mxCell id="lr-17ToZZyErR_8Ylzbh-12" style="edgeStyle=orthogonalEdgeStyle;rounded=0;orthogonalLoop=1;jettySize=auto;html=1;entryX=0.5;entryY=1;entryDx=0;entryDy=0;startArrow=classic;startFill=1;endArrow=classic;endFill=1;" edge="1" parent="1" source="lr-17ToZZyErR_8Ylzbh-2" target="lr-17ToZZyErR_8Ylzbh-5">
          <mxGeometry relative="1" as="geometry" />
        </mxCell>
        <mxCell id="lr-17ToZZyErR_8Ylzbh-2" value="Tasks" style="rounded=0;whiteSpace=wrap;html=1;fillColor=#ffe6cc;strokeColor=#d79b00;" vertex="1" parent="1">
          <mxGeometry x="410" y="1360" width="120" height="60" as="geometry" />
        </mxCell>
        <mxCell id="lr-17ToZZyErR_8Ylzbh-13" style="edgeStyle=orthogonalEdgeStyle;rounded=0;orthogonalLoop=1;jettySize=auto;html=1;exitX=0;exitY=0.5;exitDx=0;exitDy=0;startArrow=classic;startFill=1;endArrow=classic;endFill=1;" edge="1" parent="1" source="lr-17ToZZyErR_8Ylzbh-4" target="lr-17ToZZyErR_8Ylzbh-5">
          <mxGeometry relative="1" as="geometry" />
        </mxCell>
        <mxCell id="lr-17ToZZyErR_8Ylzbh-17" style="edgeStyle=orthogonalEdgeStyle;rounded=0;orthogonalLoop=1;jettySize=auto;html=1;exitX=0.5;exitY=1;exitDx=0;exitDy=0;entryX=0.75;entryY=0;entryDx=0;entryDy=0;startArrow=classic;startFill=1;endArrow=none;endFill=0;" edge="1" parent="1" source="lr-17ToZZyErR_8Ylzbh-4" target="lr-17ToZZyErR_8Ylzbh-2">
          <mxGeometry relative="1" as="geometry">
            <Array as="points">
              <mxPoint x="620" y="1315" />
              <mxPoint x="500" y="1315" />
            </Array>
          </mxGeometry>
        </mxCell>
        <mxCell id="lr-17ToZZyErR_8Ylzbh-18" style="edgeStyle=orthogonalEdgeStyle;rounded=0;orthogonalLoop=1;jettySize=auto;html=1;entryX=0.75;entryY=1;entryDx=0;entryDy=0;startArrow=classic;startFill=1;endArrow=none;endFill=0;" edge="1" parent="1" source="lr-17ToZZyErR_8Ylzbh-4" target="lr-17ToZZyErR_8Ylzbh-1">
          <mxGeometry relative="1" as="geometry">
            <Array as="points">
              <mxPoint x="620" y="1170" />
              <mxPoint x="500" y="1170" />
            </Array>
          </mxGeometry>
        </mxCell>
        <mxCell id="lr-17ToZZyErR_8Ylzbh-4" value="Notifications" style="rounded=0;whiteSpace=wrap;html=1;fillColor=#ffe6cc;strokeColor=#d79b00;" vertex="1" parent="1">
          <mxGeometry x="560" y="1210" width="120" height="60" as="geometry" />
        </mxCell>
        <mxCell id="lr-17ToZZyErR_8Ylzbh-5" value="Web UI" style="rounded=0;whiteSpace=wrap;html=1;fillColor=#d5e8d4;strokeColor=#82b366;" vertex="1" parent="1">
          <mxGeometry x="110" y="1210" width="120" height="60" as="geometry" />
        </mxCell>
        <mxCell id="lr-17ToZZyErR_8Ylzbh-10" style="edgeStyle=orthogonalEdgeStyle;rounded=0;orthogonalLoop=1;jettySize=auto;html=1;entryX=1;entryY=0.5;entryDx=0;entryDy=0;startArrow=classic;startFill=1;endArrow=classic;endFill=1;" edge="1" parent="1" source="lr-17ToZZyErR_8Ylzbh-6" target="lr-17ToZZyErR_8Ylzbh-1">
          <mxGeometry relative="1" as="geometry" />
        </mxCell>
        <mxCell id="lr-17ToZZyErR_8Ylzbh-6" value="Users-DB" style="shape=cylinder3;whiteSpace=wrap;html=1;boundedLbl=1;backgroundOutline=1;size=15;fillColor=#dae8fc;strokeColor=#6c8ebf;" vertex="1" parent="1">
          <mxGeometry x="790" y="1050" width="90" height="60" as="geometry" />
        </mxCell>
        <mxCell id="lr-17ToZZyErR_8Ylzbh-9" style="edgeStyle=orthogonalEdgeStyle;rounded=0;orthogonalLoop=1;jettySize=auto;html=1;entryX=1;entryY=0.5;entryDx=0;entryDy=0;startArrow=classic;startFill=1;endArrow=classic;endFill=1;" edge="1" parent="1" source="lr-17ToZZyErR_8Ylzbh-7" target="lr-17ToZZyErR_8Ylzbh-4">
          <mxGeometry relative="1" as="geometry" />
        </mxCell>
        <mxCell id="lr-17ToZZyErR_8Ylzbh-7" value="N-DB" style="shape=cylinder3;whiteSpace=wrap;html=1;boundedLbl=1;backgroundOutline=1;size=15;fillColor=#dae8fc;strokeColor=#6c8ebf;" vertex="1" parent="1">
          <mxGeometry x="790" y="1210" width="90" height="60" as="geometry" />
        </mxCell>
        <mxCell id="lr-17ToZZyErR_8Ylzbh-11" style="edgeStyle=orthogonalEdgeStyle;rounded=0;orthogonalLoop=1;jettySize=auto;html=1;entryX=1;entryY=0.5;entryDx=0;entryDy=0;startArrow=classic;startFill=1;endArrow=classic;endFill=1;" edge="1" parent="1" source="lr-17ToZZyErR_8Ylzbh-8" target="lr-17ToZZyErR_8Ylzbh-2">
          <mxGeometry relative="1" as="geometry" />
        </mxCell>
        <mxCell id="lr-17ToZZyErR_8Ylzbh-8" value="Tasks-DB" style="shape=cylinder3;whiteSpace=wrap;html=1;boundedLbl=1;backgroundOutline=1;size=15;fillColor=#dae8fc;strokeColor=#6c8ebf;" vertex="1" parent="1">
          <mxGeometry x="790" y="1360" width="90" height="60" as="geometry" />
        </mxCell>
      </root>
    </mxGraphModel>
  </diagram>
</mxfile>
